{"title":"Ghost Hunters - S06E23 - Sloss Furnace.[tNe.XViD].avi","uid":5964798,"size":366885632,"categoryP":"video","categoryS":"tv_shows","magnet":"?xt=urn:btih:16cc2b14837353b05eea864b3fb26090bf61e818&amp;dn=Ghost+Hunters+-+S06E23+-+Sloss+Furnace.%5BtNe.XViD%5D.avi&amp;tr=udp%3A%2F%2Ftracker.openbittorrent.com%3A80&amp;tr=udp%3A%2F%2Fopen.demonii.com%3A1337&amp;tr=udp%3A%2F%2Ftracker.coppersurfer.tk%3A6969&amp;tr=udp%3A%2F%2Fexodus.desync.com%3A6969","seeders":1,"leechers":0,"uploader":"trialNerror","files":1,"time":1290074475,"description":"Format                           : AVI\nFormat/Info                      : Audio Video Interleave\nFile size                        : 350 MiB\nDuration                         : 43mn 39s\nOverall bit rate                 : 1 120 Kbps\nWriting library                  : VirtualDub build 32839/release\n\nVideo\nID                               : 0\nFormat                           : MPEG-4 Visual\nFormat profile                   : Advanced Simple@L5\nFormat settings, BVOP            : Yes\nFormat settings, QPel            : No\nFormat settings, GMC             : No warppoints\nFormat settings, Matrix          : Default (H.263)\nCodec ID                         : XVID\nCodec ID/Hint                    : XviD\nDuration                         : 43mn 39s\nBit rate                         : 994 Kbps\nWidth                            : 624 pixels\nHeight                           : 352 pixels\nDisplay aspect ratio             : 16:9\nFrame rate                       : 29.970 fps\nColor space                      : YUV\nChroma subsampling               : 4:2:0\nBit depth                        : 8 bits\nScan type                        : Progressive\nBits/(Pixel*Frame)               : 0.151\nStream size                      : 310 MiB (89%)\nWriting library                  : XviD 1.2.1 (UTC 2008-12-04)\n\nAudio\nID                               : 1\nFormat                           : MPEG Audio\nFormat version                   : Version 1\nFormat profile                   : Layer 3\nMode                             : Joint stereo\nMode extension                   : MS Stereo\nCodec ID                         : 55\nCodec ID/Hint                    : MP3\nDuration                         : 43mn 38s\nBit rate mode                    : Variable\nBit rate                         : 113 Kbps\nChannel(s)                       : 2 channels\nSampling rate                    : 48.0 KHz\nStream size                      : 35.2 MiB (10%)\nAlignment                        : Aligned on interleaves\nInterleave, duration             : 24 ms (0.72 video frame)\nInterleave, preload duration     : 548 ms\nWriting library                  : LAME3.98r","torrent":{"xt":"urn:btih:16cc2b14837353b05eea864b3fb26090bf61e818","amp;dn":"Ghost+Hunters+-+S06E23+-+Sloss+Furnace.%5BtNe.XViD%5D.avi","amp;tr":["udp%3A%2F%2Ftracker.openbittorrent.com%3A80","udp%3A%2F%2Fopen.demonii.com%3A1337","udp%3A%2F%2Ftracker.coppersurfer.tk%3A6969","udp%3A%2F%2Fexodus.desync.com%3A6969"],"infoHash":"16cc2b14837353b05eea864b3fb26090bf61e818","infoHashBuffer":{"type":"Buffer","data":[22,204,43,20,131,115,83,176,94,234,134,75,63,178,96,144,191,97,232,24]},"announce":[],"urlList":[]}}